<?xml version="1.0" standalone="no"?>
<!DOCTYPE svg PUBLIC "-//W3C//DTD SVG 1.1//EN" "http://www.w3.org/Graphics/SVG/1.1/DTD/svg11.dtd">
<svg xmlns="http://www.w3.org/2000/svg" xmlns:xlink="http://www.w3.org/1999/xlink" version="1.1" id="Layer_1" x="0px" y="0px" viewBox="0 0 1747.75 1800" style="enable-background:new 0 0 1747.75 1800;" xml:space="preserve" width="1747.75" height="1800">
<style type="text/css">
	.st0{fill:#FFFFFF;}
	.st1{fill:#FF0000;}
</style>
<g>
	<path class="st0" d="M873.87,400c-156.78,0-313.86,17.55-466.88,52.15l-7,1.58v128.34c0,143.27,23.96,275.09,71.2,391.79   c38.3,94.57,91.85,179.45,159.18,252.28c62.79,67.93,125.1,111.48,166.31,136.05c36.52,21.77,62.11,32.34,74.12,36.7l3.06,1.11   l3.06-1.11c12.01-4.36,37.6-14.92,74.12-36.7c41.21-24.57,103.52-68.12,166.31-136.05c67.32-72.82,120.87-157.7,159.17-252.28   c47.25-116.69,71.21-248.51,71.21-391.79V453.73l-7-1.58C1187.74,417.55,1030.66,400,873.87,400z M1329.79,582.07   c0,140.96-23.52,270.51-69.9,385.05c-37.48,92.56-89.86,175.6-155.71,246.83c-61.34,66.35-122.13,108.85-162.32,132.82   c-33.07,19.72-56.94,29.87-67.99,34.1c-11.05-4.23-34.92-14.38-67.99-34.1c-40.2-23.97-100.99-66.46-162.32-132.81   c-65.85-71.23-118.24-154.28-155.72-246.83c-46.38-114.55-69.89-244.1-69.89-385.05V468.1c149.51-33.27,302.86-50.14,455.92-50.14   c153.06,0,306.42,16.87,455.92,50.14V582.07z"/>
	<path class="st0" d="M1054.18,876.63l76.53-24.62c7.69,54.46,12.47,100.85,19.85,153l64.83-21.39   c-19.38-151.97-41.85-287.6-65.47-464.31c-27.6,0-55.2,0-82.8,0c-13.04,128.09-27.77,239-41.15,372.86   c0.05-0.64,0.09-1.27,0.12-1.69c-0.03,0.35-0.06,0.86-0.13,1.69c-5.87,55.24-11.79,104.62-17.8,160.57l28.63-10.19   C1042.68,980.2,1048.41,937.97,1054.18,876.63z M1088.47,554.05c14.12,107.97,25.14,172.41,38.82,274.11l-69.99,22.48   C1068,737.53,1077.85,662.59,1088.47,554.05z"/>
	<path class="st0" d="M752.7,580.77v506.42c-0.63,65.69,23.3,147.43,110.16,150.02c29.05-0.07,51.43-10.12,68.29-25.38l45.42,16.56   V829.45v-1.3H852.3l0,1.46c0,7.15,0,13.87,0,21.02h54.64c0.31,81.6,0.43,164.14,0.74,245.74c0.32,83.07-3.59,123.24-44.82,123.69   c-41.22-0.81-41.75-40.77-41.43-123.83c0.63-160.35-0.63-320.71,0-481.06v-80.23c0-14.44,7.18-27.18,18.14-34.92   c3.34-2.36,7.03-4.24,10.98-5.57c4.29-1.44,8.86-2.26,13.64-2.26c23.61,0,42.76,19.14,42.76,42.76v109.54   c22.78,0.66,46.92,0.09,69.62,0c-0.21-22.18-0.41-44.35-0.62-66.53c-0.59-58.85-28.31-101.9-112.95-102.13   C782.21,476.05,753.3,521.97,752.7,580.77z"/>
	<path class="st0" d="M722.95,687.09c0.23-20.52-0.23-38.52,0-59.04c0.69-63.6-16.13-107.38-100.81-108.75   c-79.21-1.29-107.98,39.28-107.83,92.42c0,103.33,0,163.18,0,266.51c-1.67,50.22,24.31,128.15,100.73,162.94   c83.5,33.33,107.61-13.34,107.84-75.58c0.37-32.78-0.3-82.2,0.07-114.98l-68.14-22.48c0,0,0.26,64.8,0,84.05   c-1.02,82.82-1.78,129.09-39.58,114.02c-37.37-16.21-35.8-75.5-35.11-153.66l0.18-218.94l0,3.91l0.18-85.86   c0-20.53,16.64-37.18,37.18-37.18c20.53,0,37.18,16.65,37.18,37.18l-0.03,66.79c0.01,1.06,0.02,2.08,0.03,3.07v24.88   c0,1.2-0.01,2.38-0.01,3.53c0.01,5.59,0.07,10.71-0.02,17.15C677.28,687.44,700.27,687.67,722.95,687.09z M654.93,655.26   c-0.01,1.93-0.02,3.99-0.05,6.27C654.91,659.41,654.92,657.33,654.93,655.26z"/>
</g>
</svg>