<?xml version="1.0" standalone="no"?>
<!DOCTYPE svg PUBLIC "-//W3C//DTD SVG 1.1//EN" "http://www.w3.org/Graphics/SVG/1.1/DTD/svg11.dtd">
<svg xmlns="http://www.w3.org/2000/svg" xmlns:xlink="http://www.w3.org/1999/xlink" xmlns:xodm="http://www.corel.com/coreldraw/odm/2003" xml:space="preserve" width="9452.83984375" height="12129.5400390625" version="1.1" style="shape-rendering:geometricPrecision; text-rendering:geometricPrecision; image-rendering:optimizeQuality; fill-rule:evenodd; clip-rule:evenodd" viewBox="0 0 9452.84 12129.54">
 <defs>
  <style type="text/css">
   <![CDATA[
    .fil0 {fill:#4B0F0D}
   ]]>
  </style>
 </defs>
 <g id="Layer_x0020_1">
  <metadata id="CorelCorpID_0Corel-Layer"/>
  <g id="_2250309064608">
   <path class="fil0" d="M2023.66 10171.64c131.86,0 245.42,-23.8 329.66,-64.1l0 -236.26c-78.74,47.62 -194.14,73.26 -333.32,73.26 -293.06,0 -481.7,-188.66 -481.7,-474.36 0,-285.72 188.64,-476.2 481.7,-476.2 139.18,0 254.58,27.48 333.32,73.26l0 -234.44c-84.24,-40.28 -197.8,-64.1 -329.66,-64.1 -421.26,0 -723.46,289.38 -723.46,701.48 0,412.08 302.2,701.46 723.46,701.46zm968.68 -1003.66c-111.72,0 -201.46,56.76 -254.58,144.68l0 -126.38 -221.62 0 0 961.56 230.78 0 0 -518.32c0,-139.2 100.74,-241.76 228.94,-241.76l58.6 0 0 -219.78 -42.12 0zm298.36 -153.86c76.92,0 141.02,-62.26 141.02,-146.52 0,-80.58 -64.1,-142.86 -141.02,-142.86 -84.26,0 -146.52,62.28 -146.52,142.86 0,84.26 62.26,146.52 146.52,146.52zm-117.22 1133.72l230.78 0 0 -961.56 -230.78 0 0 961.56zm1580.42 -979.86c-146.52,0 -254.58,82.42 -302.2,195.96 -60.44,-137.36 -186.82,-195.96 -324.18,-195.96 -122.72,0 -219.78,58.6 -274.72,144.68l0 -126.38 -221.62 0 0 961.56 230.76 0 0 -520.16c0,-146.52 91.58,-238.1 208.8,-238.1 108.06,0 186.82,71.44 186.82,214.3l0 543.96 230.76 0 0 -520.16c0,-146.52 89.76,-238.1 208.8,-238.1 108.06,0 186.82,71.44 186.82,214.3l0 543.96 230.76 0 0 -589.76c0,-278.38 -170.32,-390.1 -360.8,-390.1zm891.76 1005.5c250.92,0 380.96,-113.56 380.96,-300.68 0,-400.8 -511,-243.28 -511,-419.12 0,-51.28 49.46,-82.4 146.52,-82.4 115.4,0 238.1,38.46 307.7,87.9l0 -227.1c-97.06,-43.96 -195.96,-64.1 -322.34,-64.1 -212.46,0 -360.82,111.72 -360.82,296.7 0,376.98 514.66,246.94 514.66,411.78 0,57.08 -45.78,91.88 -181.32,91.88 -113.54,0 -236.26,-36.62 -333.34,-97.36l0 229.24c102.58,45.78 219.8,73.26 358.98,73.26zm981.52 -7.32c283.88,0 500,-221.62 500,-500.02 0,-274.72 -216.12,-498.16 -500,-498.16 -282.06,0 -496.34,223.44 -496.34,500 0,278.38 216.12,498.18 496.34,498.18zm0 -219.8c-152.02,0 -261.9,-115.38 -261.9,-278.38 0,-161.18 109.88,-280.22 261.9,-280.22 153.84,0 265.56,119.04 265.56,280.22 0,161.18 -111.72,278.38 -265.56,278.38zm1182.98 -778.38c-133.7,0 -239.94,62.26 -298.54,152l0 -133.7 -221.62 0 0 961.56 230.78 0 0 -520.16c0,-146.52 97.06,-238.1 227.1,-238.1 119.06,0 205.14,71.44 205.14,214.3l0 543.96 230.76 0 0 -591.58c0,-276.56 -173.98,-388.28 -373.62,-388.28zm-6744.2 2935.92l258.24 0 -659.36 -1377.3 -3.66 0 -661.18 1377.3 258.26 0 120.88 -261.9 565.94 0 120.88 261.9zm-586.1 -478.02l183.16 -390.12 181.32 390.12 -364.48 0zm1342.32 496.34c122.72,0 214.3,-29.3 276.56,-69.6l0 -223.44c-78.74,49.44 -157.5,73.26 -256.4,73.26 -166.68,0 -282.06,-113.56 -282.06,-280.24 0,-164.82 115.38,-278.38 282.06,-278.38 98.9,0 177.66,23.8 256.4,73.26l0 -223.44c-62.26,-40.3 -153.84,-69.6 -276.56,-69.6 -271.06,0 -496.34,206.96 -496.34,498.16 0,293.06 225.28,500.02 496.34,500.02zm1133.54 -979.86l0 144.68c-62.28,-102.56 -161.18,-163 -300.38,-163 -245.42,0 -443.22,201.46 -443.22,500 0,298.54 197.8,498.18 443.22,498.18 139.2,0 238.1,-60.44 300.38,-163.02l0 144.7 221.6 0 0 -961.54 -221.6 0zm-261.92 760.08c-133.7,0 -247.24,-108.06 -247.24,-278.4 0,-172.16 113.54,-280.22 247.24,-280.22 142.86,0 252.76,108.06 252.76,280.22 0,170.34 -109.9,278.4 -252.76,278.4zm1382.62 -1153.86l0 521.98c-64.1,-91.58 -161.18,-146.52 -291.22,-146.52 -245.42,0 -443.22,201.46 -443.22,500 0,298.54 197.8,498.18 443.22,498.18 130.04,0 227.12,-54.96 291.22,-146.52l0 128.2 230.78 0 0 -1355.32 -230.78 0zm-252.74 1153.86c-133.7,0 -247.26,-108.06 -247.26,-278.4 0,-172.16 113.56,-280.22 247.26,-280.22 142.86,0 252.74,108.06 252.74,280.22 0,170.34 -109.88,278.4 -252.74,278.4zm1126.2 -778.4c-272.9,0 -478.04,238.1 -478.04,500 0,280.22 184.98,498.18 532.98,498.18 131.86,0 252.74,-32.98 320.52,-76.92l0 -216.12c-82.42,53.1 -186.82,80.58 -309.54,80.58 -166.66,0 -269.22,-78.76 -304.02,-195.98l679.48 0c5.5,-31.12 7.34,-64.1 7.34,-126.36 0,-238.1 -161.18,-463.38 -448.72,-463.38zm-241.76 406.6c29.3,-124.54 120.88,-199.64 247.24,-199.64 133.7,0 210.64,78.76 227.12,199.64l-474.36 0zm1979.68 -406.6c-146.52,0 -254.58,82.42 -302.2,195.96 -60.44,-137.36 -186.82,-195.96 -324.18,-195.96 -122.7,0 -219.78,58.6 -274.72,144.68l0 -126.36 -221.62 0 0 961.54 230.78 0 0 -520.16c0,-146.52 91.56,-238.08 208.78,-238.08 108.06,0 186.82,71.42 186.82,214.28l0 543.96 230.78 0 0 -520.16c0,-146.52 89.74,-238.08 208.78,-238.08 108.06,0 186.82,71.42 186.82,214.28l0 543.96 230.78 0 0 -589.74c0,-278.4 -170.34,-390.12 -360.82,-390.12zm693.96 -153.86c76.92,0 141.04,-62.26 141.04,-146.52 0,-80.58 -64.12,-142.86 -141.04,-142.86 -84.24,0 -146.52,62.28 -146.52,142.86 0,84.26 62.28,146.52 146.52,146.52zm-117.22 1133.72l230.78 0 0 -961.54 -230.78 0 0 961.54zm875.3 -979.86c-272.9,0 -478.04,238.1 -478.04,500 0,280.22 184.98,498.18 532.98,498.18 131.86,0 252.74,-32.98 320.52,-76.92l0 -216.12c-82.42,53.1 -186.82,80.58 -309.54,80.58 -166.66,0 -269.22,-78.76 -304.02,-195.98l679.48 0c5.5,-31.12 7.34,-64.1 7.34,-126.36 0,-238.1 -161.18,-463.38 -448.72,-463.38zm-241.76 406.6c29.3,-124.54 120.88,-199.64 247.24,-199.64 133.7,0 210.64,78.76 227.12,199.64l-474.36 0zm1173.82 598.9c250.9,0 380.94,-113.56 380.94,-300.68 0,-400.8 -510.98,-243.28 -510.98,-419.1 0,-51.28 49.44,-82.42 146.52,-82.42 115.38,0 238.1,38.46 307.7,87.9l0 -227.1c-97.08,-43.96 -195.98,-64.1 -322.36,-64.1 -212.46,0 -360.8,111.72 -360.8,296.7 0,377 514.66,246.96 514.66,411.78 0,57.1 -45.8,91.9 -181.32,91.9 -113.56,0 -236.28,-36.64 -333.34,-97.38l0 229.24c102.56,45.78 219.78,73.26 358.98,73.26z"/>
   <g>
    <path class="fil0" d="M3558.24 4758.7c243.2,0 462.96,-98.9 621.66,-258.8 63.98,-64.46 118.12,-139 160.02,-221.12 229.46,-488.64 545.62,-1137.7 743.32,-1584.98 97.44,-220.42 233.12,-420.86 521.62,-420.86 281.62,0 415.8,209.1 519.94,435.32l1262.48 2742.6 -468.12 0c-216.74,0 -370.5,-121.28 -461.08,-323.46l-859.28 -1866.16 -581.56 1239.3c-80.2,186.9 -194.9,355.56 -336.1,497.82 -287.78,289.94 -684.8,469.28 -1122.9,469.28 -438.1,0 -835.14,-179.34 -1122.9,-469.28 -287.4,-289.56 -465.16,-688.48 -465.16,-1128.1 0,-439.62 177.76,-838.54 465.16,-1128.1 287.76,-289.96 684.8,-469.28 1122.9,-469.28 328.74,0 634.34,100.98 888.02,273.88l-305.98 656.34c-154.74,-137.72 -358.48,-221.3 -582.04,-221.3 -243.2,0 -462.96,98.92 -621.68,258.82 -159.06,160.28 -257.46,382.82 -257.46,629.64 0,246.82 98.4,469.36 257.46,629.64 158.72,159.9 378.48,258.8 621.68,258.8z"/>
    <path class="fil0" d="M4737.88 0c1076.12,0 2050.38,436.2 2755.62,1141.42 705.24,705.24 1141.44,1679.52 1141.44,2755.64 0,1076.14 -436.2,2050.4 -1141.44,2755.64 -705.24,705.22 -1679.5,1141.42 -2755.62,1141.42 -1076.14,0 -2050.4,-436.2 -2755.64,-1141.42 -705.24,-705.24 -1141.44,-1679.5 -1141.44,-2755.64 0,-1076.12 436.2,-2050.4 1141.44,-2755.64 705.24,-705.22 1679.5,-1141.42 2755.64,-1141.42zm2530.44 1366.62c-647.6,-647.58 -1542.24,-1048.12 -2530.44,-1048.12 -988.22,0 -1882.86,400.54 -2530.44,1048.12 -647.58,647.58 -1048.12,1542.24 -1048.12,2530.44 0,988.2 400.54,1882.86 1048.12,2530.44 647.58,647.58 1542.22,1048.12 2530.44,1048.12 988.2,0 1882.84,-400.54 2530.44,-1048.12 647.58,-647.58 1048.12,-1542.24 1048.12,-2530.44 0,-988.2 -400.54,-1882.86 -1048.12,-2530.44z"/>
   </g>
  </g>
 </g>
</svg>