<?xml version="1.0" standalone="no"?>
<!DOCTYPE svg PUBLIC "-//W3C//DTD SVG 1.1//EN" "http://www.w3.org/Graphics/SVG/1.1/DTD/svg11.dtd">
<svg xmlns="http://www.w3.org/2000/svg" xmlns:xlink="http://www.w3.org/1999/xlink" xmlns:xodm="http://www.corel.com/coreldraw/odm/2003" xml:space="preserve" width="15108.900390625" height="11211.7998046875" version="1.1" style="shape-rendering:geometricPrecision; text-rendering:geometricPrecision; image-rendering:optimizeQuality; fill-rule:evenodd; clip-rule:evenodd" viewBox="0 0 15108.9 11211.8">
 <defs>
  <style type="text/css">
   <![CDATA[
    .fil0 {fill:none}
    .fil2 {fill:#00288D;fill-rule:nonzero}
    .fil1 {fill:url(#id0);fill-rule:nonzero}
   ]]>
  </style>
  <linearGradient id="id0" gradientUnits="userSpaceOnUse" x1="10815.58" y1="6105.12" x2="12601.12" y2="4611.03">
   <stop offset="0" style="stop-opacity:1; stop-color:#09278C"/>
   <stop offset="1" style="stop-opacity:1; stop-color:#236CE3"/>
  </linearGradient>
 </defs>
 <g id="Layer_x0020_1">
  <metadata id="CorelCorpID_0Corel-Layer"/>
  <rect class="fil0" x="-2.07" y="7.52" width="15108.94" height="11211.77"/>
  <g id="_1769716368">
   <path class="fil1" d="M11187.83 4354.47c517.65,218.06 758.44,287.73 922.05,270.4 158.4,-16.77 248.06,-97.24 664.51,-362.44 71.88,-45.78 110.77,-60.33 130.05,-47.28 14.14,9.58 19.62,28.05 10.32,90.24 -28.74,191.86 -105.33,405.51 -66.34,589.23 28.4,133.5 307.85,305.01 475.97,423.67 84.51,59.65 91.41,82.2 88.43,99.59 -3.25,18.87 -23.79,30.4 -119.63,41.91 -162.63,19.53 -436.91,22.71 -569.54,109.23 -139.88,101.27 -145.02,335.5 -157.87,506.72 -20.03,267.18 -103.9,235.43 -228.39,48.36 -64.97,-97.64 -86.29,-311.45 -88.41,-353.02 -12.91,-252.05 37.88,-420.98 133.2,-644.79 22.18,-52.07 32.97,-79.25 30.9,-80.25 -2.34,-1.14 -13.6,18.95 -42.19,69.63 -66.65,118.14 -158.93,250.21 -233.91,342.02 -329.62,403.66 -616.08,631.01 -1310.07,598.02 -208.15,-9.89 -111.96,-138.87 6.87,-197.33 256.01,-125.97 675.18,-436.55 551.08,-764.68 -31.09,-82.18 -216.44,-461.82 -327.06,-666.75 -88.24,-163.46 12.18,-118.4 130.03,-72.48z"/>
   <path class="fil2" d="M2008.43 7168.87c371.65,-1206.14 1003.01,-2392.41 2177.84,-2802.7 238.97,-84.84 499.41,-73.94 724.36,30.3 407.32,193.59 725.96,862 943.66,1368.18 1047.01,-380.89 2234.93,-633.1 3372.01,-659.32 475.12,-10.95 1329.08,39.82 1793.55,157.83 53.32,13.67 68.29,61.22 56.07,94.11 -13.72,36.89 -58.25,59.89 -116.74,47.25 -445.3,-96.19 -1262.78,-146.89 -1714.98,-134.73 -1190.97,32.04 -2039.31,290.35 -3300.12,752.94 88.02,226.32 330.08,756.71 500.02,1069.06 156.17,287.04 257.74,362.65 577.14,291.69 229.55,-50.99 446.18,-174.49 472.81,-232.25 93.36,-381.38 382.03,-616.25 730.97,-660.92 196.49,-25.16 441.54,5.53 609.62,115.2 100.4,65.64 84.44,175.57 -43.92,197.11 -97.03,16.26 -189.76,-31.7 -297.92,-22.06 -152.94,13.64 -274.5,140.19 -299.23,254.05 -36.47,167.98 109.48,280.53 273.11,252.31 271.78,-46.96 501.96,-352.56 674.15,-544.21 126.5,-140.83 330.19,-419.57 514.83,-199.22 206.39,246.3 265.91,908.35 230.99,1110.17 252.88,-104.87 475.4,-321.12 610.52,-522.07 48.9,-304.05 282.05,-523.45 565.44,-638.77 270.14,-109.9 862.76,-174.69 1040.95,140.09 58.86,103.87 34.7,252.85 -9.19,347.64 -72.41,156.35 -309.46,352.92 -471.01,394.8 478.99,157.34 929.93,-107.49 1235.43,-352.89 41.92,-33.69 86.55,-52.32 120.94,-46.05 55.91,10.16 80.84,65.79 70.56,116.94 -5.51,27.4 -24.86,60.06 -52.89,95.01 -305.79,381.31 -893.8,601.81 -1376.57,626.66 -412.36,21.22 -774.59,-128.29 -1010.83,-441.17 -141.28,255.47 -659.42,558.97 -752.73,593.74 -101.64,628.25 -745.99,1298.55 -1364.01,1441.55 -294.08,68.04 -604.8,39.96 -821.82,-165.92 -122.79,-116.31 -160.22,-311.24 -103.39,-476.03 148.96,-431.3 1227.27,-692.54 1659.57,-895.81 59.49,-82.3 99.64,-655.37 -27.79,-747.69 -270.51,217.7 -588.43,617.14 -1022.81,663.25 -381.2,40.46 -586.74,-244.35 -653.81,-391.69 -198.47,229.42 -558.27,412.56 -921.97,425.96 -788.2,29.04 -1163.44,-806.27 -1454.53,-1401.16 -934.91,430.06 -1346.47,568.37 -2774.98,1372.13 -195.93,110.24 -307.52,204.94 -413.05,-10.85 -67.91,-177.83 -8.01,-437.73 49.75,-612.46zm2982.68 -1093.95c-206.51,-440.88 -437.97,-1097.06 -726.76,-1181.99 -31.52,-9.26 -70.55,-14.62 -103.73,-10.8 -708.31,57.65 -1274.7,1057.61 -1656.49,2142.33 1359.56,-558.09 1567.84,-635.41 2486.98,-949.54zm6736.84 948.16c68.4,-77.29 149.93,-264.47 27.71,-331.03 -77.55,-42.25 -192.53,-42.79 -297.05,-15.28 -135.57,35.68 -297.86,169.26 -273.06,328.57 22.06,141.67 115.29,203.85 153.79,232.62 142.7,-33.09 293.92,-107.69 388.61,-214.88zm-3147.02 1762.51c207.97,-164.58 490.97,-465.65 540.17,-635.31 -129.59,64.23 -622.39,339.82 -769.3,407.34 -135.92,62.46 -330.19,153.49 -352.78,237.79 -24.09,88.96 41.66,132.51 123.97,149.58 197.84,41 311.8,-43.79 457.94,-159.4z"/>
   <g>
    <g>
     <g id="XMLID_97_">
      <path id="XMLID_2_" class="fil2" d="M2897.66 3228.35c-97.62,44.64 -210.3,66.83 -337.77,66.83 -116.01,0 -223.43,-19.1 -321.77,-57.29 -98.35,-38.19 -183.56,-92.37 -255.89,-162.55 -72.33,-70.19 -128.91,-153.97 -169.96,-251.6 -41.06,-97.62 -61.58,-205.28 -61.58,-322.73 0,-120.31 20.77,-229.39 62.54,-327.03 41.77,-97.62 99.54,-180.7 173.06,-249.45 73.52,-68.74 159.93,-121.26 258.99,-158.26 99.06,-36.76 206.01,-55.14 320.58,-55.14 106.23,0 210.54,18.86 313.18,56.33 102.65,37.48 185.72,92.38 249.45,164.47l-246.34 246.35c-33.9,-46.79 -78.54,-81.4 -133.92,-104.08 -55.14,-22.68 -111.95,-33.9 -169.95,-33.9 -63.73,0 -121.98,11.7 -175.21,35.09 -53.23,23.39 -98.82,55.62 -137.01,96.68 -38.19,41.06 -68.04,89.51 -89.28,145.61 -21.24,55.86 -31.74,117.21 -31.74,183.56 0,68.04 10.74,130.33 31.74,186.91 21.25,56.58 50.61,105.03 88.09,145.37 37.47,40.34 82.35,71.85 134.86,94.53 52.28,22.68 109.57,33.9 172.11,33.9 72.33,0 135.1,-14.08 189.05,-42.49 53.71,-28.41 96.92,-65.17 129.62,-110.29l252.79 237.76c-65.89,76.39 -148.01,136.79 -245.64,181.42z"/>
      <path id="XMLID_4_" class="fil2" d="M4353.05 3254.85l-326.32 -596.77 -123.88 0 0 596.77 -354.71 0 0 -1503.37 573.36 0c72.33,0 142.74,7.4 211.26,22.21 68.74,14.79 130.33,40.1 184.76,75.43 54.43,35.33 98.1,82.12 130.57,140.12 32.46,58 48.94,130.33 48.94,216.51 0,101.93 -27.69,187.62 -82.83,256.84 -55.15,69.46 -131.53,118.88 -229.4,148.72l392.9 643.54 -424.65 0zm-14.8 -1042.43c0,-35.33 -7.4,-63.97 -22.44,-85.93 -15.04,-21.96 -34.14,-38.91 -57.52,-50.85 -23.39,-12.17 -49.89,-20.29 -79.01,-24.58 -29.13,-4.3 -57.29,-6.44 -84.27,-6.44l-194.07 -0.01 0 350.42 172.82 0c29.84,0 60.4,-2.39 91.9,-7.4 31.27,-5.02 59.68,-13.85 85.46,-26.5 25.54,-12.65 46.54,-31.03 63.02,-55.14 15.76,-24.35 24.11,-55.38 24.11,-93.57z"/>
      <polygon id="XMLID_7_" class="fil2" points="5203.08,3254.85 5203.08,1751.48 5568.29,1751.48 5568.29,3254.86 "/>
      <polygon id="XMLID_9_" class="fil2" points="7494.89,3254.85 7503.49,2190.93 7497.04,2190.93 7106.28,3254.85 6851.57,3254.85 6471.55,2190.93 6465.11,2190.93 6473.71,3254.85 6131.88,3254.85 6131.88,1751.48 6648.44,1751.48 6990.74,2715.61 6999.34,2715.61 7326.84,1751.48 7851.99,1751.48 7851.99,3254.86 "/>
      <path id="XMLID_11_" class="fil2" d="M9203.78 2142.24c-31.03,-39.62 -71.85,-71.14 -121.97,-94.53 -50.37,-23.39 -98.83,-35.09 -145.37,-35.09 -24.11,0 -48.46,2.15 -73.29,6.45 -24.83,4.29 -47.02,12.41 -66.83,24.35 -19.82,12.17 -36.52,27.68 -49.9,46.78 -13.6,19.1 -20.05,43.69 -20.05,73.29 0,25.54 5.25,46.79 15.99,63.73 10.51,16.95 26.26,31.98 46.79,44.64 20.53,12.65 44.88,24.35 73.29,35.09 28.41,10.73 60.16,21.48 95.48,32.94 50.84,16.95 104.07,35.8 159.22,56.33 55.14,20.52 105.51,47.74 150.62,81.64 45.35,33.89 82.83,76.14 112.66,126.27 29.84,50.37 44.64,112.91 44.64,187.86 0,86.42 -15.99,161.13 -47.74,224.14 -31.75,63.02 -74.71,115.06 -128.43,156.12 -53.95,41.06 -115.53,71.62 -184.76,91.19 -69.46,19.81 -140.83,29.83 -214.36,29.83 -107.66,0 -211.73,-18.86 -312.23,-56.33 -100.5,-37.48 -184.04,-90.95 -250.64,-160.41l237.76 -242.05c36.76,45.35 85.22,83.31 145.37,113.62 60.16,30.56 120.07,45.6 179.51,45.6 26.97,0 53.23,-2.87 78.53,-8.6 25.54,-5.73 47.75,-14.8 66.84,-27.69 19.1,-12.65 34.37,-29.83 45.59,-50.85 11.46,-21.24 16.96,-46.78 16.96,-76.39 0,-28.41 -7.17,-52.27 -21.25,-72.08 -14.08,-19.81 -34.37,-37.96 -60.39,-54.19 -26.26,-16.23 -58.73,-31.03 -97.63,-44.64 -38.91,-13.37 -83.31,-27.93 -132.72,-43.44 -48.22,-15.52 -95.25,-33.89 -141.31,-55.14 -46.07,-21.25 -87.13,-48.46 -123.18,-81.64 -36.04,-33.18 -65.16,-73.52 -87.12,-121.02 -21.96,-47.5 -32.94,-105.03 -32.94,-173.06 0,-83.54 16.95,-154.91 50.84,-214.36 33.9,-59.44 78.54,-108.37 133.68,-146.56 55.15,-38.19 117.45,-66.12 186.91,-83.79 69.46,-17.66 139.41,-26.5 210.3,-26.5 84.98,0 171.64,15.52 260.19,46.79 88.56,31.04 165.91,77.1 232.5,137.97l-231.56 243.73z"/>
      <path id="XMLID_13_" class="fil2" d="M11462.42 2496.96c0,118.87 -20.53,227.49 -61.59,325.83 -41.06,98.35 -98.1,182.62 -170.91,252.79 -73.04,70.18 -159.7,124.12 -260.19,162.56 -100.5,38.19 -209.58,57.29 -327.03,57.29 -117.45,0 -226.05,-19.1 -325.84,-57.29 -99.78,-38.19 -186.19,-92.38 -258.99,-162.56 -73.04,-70.18 -129.85,-154.2 -170.91,-252.79 -41.06,-98.58 -61.58,-206.95 -61.58,-325.83 0,-120.31 20.52,-228.92 61.58,-326.07 41.06,-97.15 98.1,-179.51 170.91,-247.3 72.81,-68.04 159.22,-120.31 258.99,-157.07 99.79,-36.77 208.39,-55.15 325.84,-55.15 117.45,0 226.53,18.38 327.03,55.15 100.49,36.76 187.14,89.27 260.19,157.07 72.81,68.03 129.85,150.38 170.91,247.3 41.05,96.91 61.59,205.76 61.59,326.07zm-388.62 0c0,-65.17 -10.75,-126.04 -31.75,-182.61 -21.25,-56.58 -50.61,-105.04 -88.08,-145.38 -37.48,-40.33 -82.83,-72.32 -135.83,-95.47 -53.23,-23.4 -111.47,-35.09 -175.2,-35.09 -63.74,0 -121.75,11.69 -174.02,35.09 -52.27,23.39 -97.63,55.14 -135.83,95.47 -38.18,40.34 -67.55,88.81 -88.08,145.38 -20.52,56.57 -30.79,117.44 -30.79,182.61 0,68.03 10.75,130.57 31.75,187.86 21.25,57.29 50.6,106.46 88.08,147.52 37.48,41.06 82.6,73.28 134.87,96.68 52.27,23.39 110.28,35.09 174.02,35.09 63.73,0 121.74,-11.7 174.25,-35.09 52.28,-23.4 97.63,-55.62 135.83,-96.68 38.19,-41.06 68.03,-90.23 89.27,-147.52 20.77,-57.29 31.51,-120.07 31.51,-187.86z"/>
      <polygon id="XMLID_16_" class="fil2" points="12905.15,3254.85 12300.03,2271.62 12293.58,2271.62 12302.18,3254.85 11949.61,3254.85 11949.61,1751.48 12363.76,1751.48 12966.97,2732.57 12973.42,2732.56 12964.82,1751.48 13317.39,1751.48 13317.39,3254.86 "/>
     </g>
    </g>
   </g>
   <path class="fil2" d="M2355.05 8688.91c-74.28,-65.62 -169.61,-91.62 -268.65,-91.62 -172.08,0 -334.26,97.81 -334.26,284.74 0,292.17 411.01,205.51 411.01,366.45 0,61.9 -70.56,91.62 -133.7,91.62 -64.38,0 -128.75,-30.95 -168.37,-82.95l-137.42 151.04c82.95,76.75 181.99,110.18 294.65,110.18 180.75,0 337.97,-92.85 337.97,-288.46 0,-307.02 -403.59,-204.27 -403.59,-363.97 0,-65.61 75.52,-90.37 130,-90.37 47.04,0 108.94,18.57 139.89,58.18l132.47 -144.84zm921.57 37.14c-74.28,-95.33 -198.08,-128.76 -295.88,-128.76 -273.61,0 -472.92,179.51 -472.92,460.54 0,281.03 199.31,460.54 472.92,460.54 120.08,0 243.88,-48.28 316.93,-152.27l-160.95 -120.09c-39.61,59.42 -102.75,94.09 -180.75,94.09 -139.89,0 -247.6,-118.85 -247.6,-282.27 0,-163.41 107.71,-282.26 253.79,-282.26 71.81,0 127.52,26 165.9,71.8l148.56 -121.32zm181.24 770.04l193.13 0 0 -378.83 375.12 0 0 378.83 193.13 0 0 -876.51 -193.13 0 0 326.83 -375.12 0 0 -326.83 -193.13 0 0 876.51zm947.57 -438.26c0,281.03 199.32,460.54 472.92,460.54 273.6,0 472.92,-179.51 472.92,-460.54 0,-281.03 -199.32,-460.54 -472.92,-460.54 -273.6,0 -472.92,179.51 -472.92,460.54zm200.56 0c0,-163.41 107.71,-282.26 272.36,-282.26 164.66,0 272.36,118.85 272.36,282.26 0,163.42 -107.7,282.27 -272.36,282.27 -164.65,0 -272.36,-118.85 -272.36,-282.27zm884.43 0c0,281.03 199.32,460.54 472.92,460.54 273.6,0 472.92,-179.51 472.92,-460.54 0,-281.03 -199.32,-460.54 -472.92,-460.54 -273.6,0 -472.92,179.51 -472.92,460.54zm200.56 0c0,-163.41 107.71,-282.26 272.36,-282.26 164.66,0 272.36,118.85 272.36,282.26 0,163.42 -107.7,282.27 -272.36,282.27 -164.65,0 -272.36,-118.85 -272.36,-282.27zm938.9 438.26l550.92 0 0 -178.28 -357.79 0 0 -698.23 -193.13 0 0 876.51z"/>
  </g>
 </g>
</svg>