<?xml version="1.0" standalone="no"?>
<!DOCTYPE svg PUBLIC "-//W3C//DTD SVG 1.1//EN" "http://www.w3.org/Graphics/SVG/1.1/DTD/svg11.dtd">
<svg xmlns="http://www.w3.org/2000/svg" xmlns:xlink="http://www.w3.org/1999/xlink" xmlns:xodm="http://www.corel.com/coreldraw/odm/2003" xml:space="preserve" width="51398.98828125" height="32283.099609375" version="1.1" style="shape-rendering:geometricPrecision; text-rendering:geometricPrecision; image-rendering:optimizeQuality; fill-rule:evenodd; clip-rule:evenodd" viewBox="0 0 51398.99 32283.1">
 <defs>
  <style type="text/css">
   <![CDATA[
    .fil0 {fill:#1B307B;fill-rule:nonzero}
    .fil1 {fill:#375ACC;fill-rule:nonzero}
   ]]>
  </style>
 </defs>
 <g id="Layer_x0020_1">
  <metadata id="CorelCorpID_0Corel-Layer"/>
  <g id="_2297611305008">
   <path class="fil0" d="M4295.57 21382.17l4564.79 0 1563.14 10722.42 5924.46 0 -5746.27 -32104.59 -4855.4 0 -5746.29 32104.59 2583.62 0 1711.95 -10722.42zm2386.17 -14944.87l1914.01 13017.78 -3988.36 0 2074.35 -13017.78z"/>
   <path class="fil0" d="M47958.69 32104.59l1667.86 0 0 -4093.86 1512.7 -5224.44 -711.1 0 -1124.83 4165.27 -956.75 -4165.27 -1706.63 0 1318.75 5224.44 0 4093.86zm-23822.68 -3112.16l1324.93 0 453.69 3112.16 1719.57 0 -1667.85 -9318.3 -1409.27 0 -1667.84 9318.3 749.88 0 496.89 -3112.16zm692.58 -4337.71l555.55 3778.37 -1157.62 0 602.07 -3778.37zm-2740.96 3762.53l-1654.92 0 0 2259.25c0,892.52 -142.22,1154.37 -594.74,1154.37 -504.22,0 -633.52,-238.02 -633.52,-1154.37l0 -6462.11c0,-880.65 129.3,-1142.47 620.6,-1142.47 465.44,0 607.66,249.92 607.66,1142.47l0 725 0 417.48 1654.92 0 0 -83.31 0 -499.83c0,-1428.09 -762.82,-2165.94 -2210.87,-2165.94 -969.68,0 -1641.99,333.22 -1965.22,963.96 -374.94,725.94 -504.23,1689.9 -504.23,3879.64 0,904.46 25.86,1523.31 77.58,2130.24 64.64,773.54 155.14,1213.88 349.08,1642.31 336.16,702.14 1034.33,1059.16 2029.86,1059.16 1448.06,0 2223.8,-821.15 2223.8,-2368.25l0 -1497.6zm6503.32 -5630.96l0 9318.3 2249.66 0c995.54,0 1603.2,-333.23 2055.73,-1106.77 297.36,-511.73 400.8,-880.66 465.44,-1761.31 51.72,-678.35 64.64,-1320.99 64.64,-1939.83 0,-1047.26 -64.64,-1963.62 -219.79,-2653.86 -77.58,-333.22 -206.86,-630.75 -387.87,-928.26 -426.66,-714.04 -892.12,-928.27 -2185.02,-928.27l-2042.79 0zm2029.87 8854.17l-400.81 0 0 -8378.13 387.88 0c452.51,0 698.17,238.02 840.39,856.85 116.36,511.74 181,1023.47 206.86,1797.02 12.94,297.52 12.94,773.55 12.94,1439.98 0,2046.94 -25.87,2522.97 -168.09,3296.52 -116.36,678.34 -387.89,987.76 -879.17,987.76zm3917.5 -8854.17l0 9318.3 3852.86 0 0 -595.04 -2223.8 0 0 -3864.18 2120.37 0 0 -595.04 -2120.37 0 0 -3645.19 2223.8 0 0 -618.85 -3852.86 0zm9606.3 9318.3l1616.13 0 0 -9318.3 -1719.56 0 -1318.77 6438.32 -1435.12 -6438.32 -1629.07 0 0 9318.3 711.1 0 -103.43 -7164.26 1512.7 7164.26 943.82 0 1473.92 -7164.26 -51.72 7164.26z"/>
  </g>
  <path class="fil1" d="M15430.6 9672.97l-1261.11 0 1287.94 -9391.23 1690.42 0 1220.86 9391.23 -1274.52 0 -254.91 -2106.32 -1180.61 0 -228.07 2106.32zm818.38 -7687.39l-442.73 4360.21 898.87 0 -456.14 -4360.21zm6734.84 5299.33c0,286.19 -4.47,518.77 -13.41,697.64 -8.94,178.88 -22.36,328.7 -40.25,449.44 -17.88,120.74 -46.96,225.84 -87.2,315.27 -40.24,89.44 -89.67,189.04 -154.29,295.16 -147.8,242.71 -364.25,432 -639.5,570.18 -277.03,139.07 -585.83,207.95 -923.47,207.95 -328.69,0 -632.57,-69.77 -907.82,-207.95 -277.03,-139.07 -493.93,-327.47 -641.73,-570.18 -64.62,-106.12 -114.04,-205.73 -154.28,-295.16 -40.24,-89.44 -69.33,-196.77 -87.21,-321.98 -17.89,-125.21 -31.31,-277.27 -40.25,-456.15 -8.94,-178.87 -13.41,-406.95 -13.41,-684.22l0 -4628.53c0,-277.26 4.47,-505.35 13.41,-684.22 8.94,-178.88 22.37,-330.93 40.25,-456.14 17.89,-125.21 46.97,-234.78 87.21,-328.7 40.24,-93.9 91.29,-190.31 154.28,-288.44 149.42,-232.79 364.69,-415.47 641.73,-550.06 275.24,-133.72 579.13,-201.24 907.82,-201.24 337.64,0 646.43,66.65 923.47,201.24 275.24,133.72 490.08,317.27 639.5,550.06 62.99,98.13 114.05,194.53 154.29,288.44 40.24,93.91 69.31,203.49 87.2,328.7 17.88,125.21 31.31,277.26 40.25,456.14 8.94,178.87 13.41,406.97 13.41,684.22l0 4628.53zm-1301.35 -5165.17c0,-268.32 -41,-460.1 -122.98,-576.89 -81.24,-115.74 -225.84,-174.41 -433.79,-174.41 -190.06,0 -327.97,58.68 -413.66,174.41 -86.48,116.8 -129.69,308.58 -129.69,576.89l0 5715.23c0,268.31 41.02,462.35 122.98,583.6 81.26,120.22 221.37,181.12 420.37,181.12 199.01,0 341.37,-60.91 427.08,-181.12 86.46,-121.26 129.69,-315.28 129.69,-583.6l0 -5715.23zm3354.01 -617.14l-1234.28 0 0 -1220.86 3823.57 0 0 1220.86 -1287.94 0 0 8170.37 -1301.35 0 0 -8170.37zm6614.11 -1220.86l0 1220.86 -1864.83 0 0 2642.96 1301.36 0 0 1220.86 -1301.36 0 0 3085.69 1972.16 0 0 1220.86 -3273.52 0 0 -9391.23 3166.19 0zm2227.06 9391.23l-1261.11 0 1287.94 -9391.23 1690.42 0 1220.86 9391.23 -1274.52 0 -254.91 -2106.32 -1180.61 0 -228.07 2106.32zm818.38 -7687.39l-442.73 4360.21 898.87 0 -456.14 -4360.21zm4346.79 -1703.84c529.93,0 936.88,49.2 1220.86,147.58 283.96,98.38 524.98,258.9 708.81,496.39 176.3,227.76 297.4,505.34 377.89,818.38 80.49,313.03 120.74,697.63 120.74,1153.78 0,295.15 -8.95,550.06 -26.83,764.71 -17.89,214.65 -53.67,404.73 -107.33,570.19 -53.65,165.46 -125.22,321.99 -210.18,469.56 -84.96,147.57 -194.54,306.33 -330.93,476.27l930.18 4494.37 -1415.4 0 -769.18 -4038.23c-116.28,17.89 -199.01,29.17 -248.2,33.54 -51.42,4.56 -125.22,11.18 -223.6,20.13l0 3984.56 -1301.36 0 0 -9391.23 1274.53 0zm214.65 4091.89c214.66,0 382.37,-26.83 503.11,-80.49 120.74,-53.66 216.19,-143.52 288.44,-268.32 26.12,-45.13 46.96,-96.16 60.37,-154.29 13.41,-58.13 24.6,-134.17 33.54,-228.07 8.94,-93.91 15.66,-210.18 20.13,-348.82 4.47,-138.62 6.7,-315.27 6.7,-529.93 0,-250.43 -13.41,-458.39 -40.24,-623.85 -26.83,-165.46 -73.79,-295.15 -140.87,-389.06 -67.08,-93.91 -158.77,-158.76 -275.03,-194.53 -116.27,-35.77 -268.33,-53.67 -456.15,-53.67l-187.82 0 0 2871.03 187.82 0zm7043.42 2911.28c0,286.19 -4.47,518.77 -13.41,697.64 -8.94,178.88 -22.36,328.7 -40.25,449.44 -17.88,120.74 -46.96,225.84 -87.2,315.27 -40.24,89.44 -89.67,189.04 -154.29,295.16 -147.8,242.71 -364.25,432 -639.5,570.18 -277.03,139.07 -585.83,207.95 -923.47,207.95 -328.69,0 -632.57,-69.77 -907.82,-207.95 -277.03,-139.07 -493.93,-327.47 -641.73,-570.18 -64.62,-106.12 -114.04,-205.73 -154.28,-295.16 -40.24,-89.44 -69.33,-196.77 -87.21,-321.98 -17.89,-125.21 -31.31,-277.27 -40.25,-456.15 -8.94,-178.87 -13.41,-406.95 -13.41,-684.22l0 -4628.53c0,-277.26 4.47,-505.35 13.41,-684.22 8.94,-178.88 22.37,-330.93 40.25,-456.14 17.89,-125.21 46.97,-234.78 87.21,-328.7 40.24,-93.9 91.29,-190.31 154.28,-288.44 149.42,-232.79 364.69,-415.47 641.73,-550.06 275.24,-133.72 579.13,-201.24 907.82,-201.24 337.64,0 646.43,66.65 923.47,201.24 275.24,133.72 490.08,317.27 639.5,550.06 62.99,98.13 114.05,194.53 154.29,288.44 40.24,93.91 69.31,203.49 87.2,328.7 17.88,125.21 31.31,277.26 40.25,456.14 8.94,178.87 13.41,406.97 13.41,684.22l0 4628.53zm-1301.35 -5165.17c0,-268.32 -41,-460.1 -122.98,-576.89 -81.24,-115.74 -225.84,-174.41 -433.79,-174.41 -190.06,0 -327.97,58.68 -413.66,174.41 -86.48,116.8 -129.69,308.58 -129.69,576.89l0 5715.23c0,268.31 41.02,462.35 122.98,583.6 81.26,120.22 221.37,181.12 420.37,181.12 199.01,0 341.37,-60.91 427.08,-181.12 86.46,-121.26 129.69,-315.28 129.69,-583.6l0 -5715.23zm3461.34 7553.23l-1261.11 0 1287.94 -9391.23 1690.42 0 1220.86 9391.23 -1274.52 0 -254.91 -2106.32 -1180.61 0 -228.07 2106.32zm818.38 -7687.39l-442.73 4360.21 898.87 0 -456.14 -4360.21z"/>
  <path class="fil0" d="M16910.67 20888.78l-1301.36 0 0 -9391.23 1301.36 0 0 9391.23zm5285.92 0l-1301.36 0 -1556.26 -4923.69 0 4923.69 -1301.36 0 0 -9391.23 1126.95 0 1730.67 5527.41 0 -5527.41 1301.36 0 0 9391.23zm4306.55 -9391.23l0 1220.86 -1864.83 0 0 2642.96 1301.36 0 0 1220.86 -1301.36 0 0 4306.55 -1301.36 0 0 -9391.23 3166.19 0zm2052.65 9391.23l-1301.36 0 0 -9391.23 1301.36 0 0 9391.23zm5285.92 0l-1301.36 0 -1556.26 -4923.69 0 4923.69 -1301.36 0 0 -9391.23 1126.95 0 1730.67 5527.41 0 -5527.41 1301.36 0 0 9391.23zm2441.72 0l-1301.36 0 0 -9391.23 1301.36 0 0 9391.23zm1891.66 -8170.37l-1234.28 0 0 -1220.86 3823.57 0 0 1220.86 -1287.94 0 0 8170.37 -1301.35 0 0 -8170.37zm6412.87 -1220.86l0 1220.86 -1864.83 0 0 2642.96 1301.36 0 0 1220.86 -1301.36 0 0 3085.69 1972.16 0 0 1220.86 -3273.52 0 0 -9391.23 3166.19 0z"/>
 </g>
</svg>