<?xml version="1.0" standalone="no"?>
<!DOCTYPE svg PUBLIC "-//W3C//DTD SVG 1.1//EN" "http://www.w3.org/Graphics/SVG/1.1/DTD/svg11.dtd">
<svg xmlns="http://www.w3.org/2000/svg" xmlns:xlink="http://www.w3.org/1999/xlink" version="1.1" id="Layer_1" x="0px" y="0px" viewBox="0 0 1747.8 1800" style="enable-background:new 0 0 1747.8 1800;" xml:space="preserve" width="1747.800048828125" height="1800">
<style type="text/css">
	.st0{fill:#5B000B;}
	.st1{fill:#FFFFFF;}
</style>
<g>
	<path class="st0" d="M873.9,400C717.1,400,560,417.5,407,452.1l-7,1.6v128.3c0,143.3,24,275.1,71.2,391.8   c38.3,94.6,91.8,179.4,159.2,252.3c62.8,67.9,125.1,111.5,166.3,136.1c36.5,21.8,62.1,32.3,74.1,36.7l3.1,1.1l3.1-1.1   c12-4.4,37.6-14.9,74.1-36.7c41.2-24.6,103.5-68.1,166.3-136.1c67.3-72.8,120.9-157.7,159.2-252.3   c47.2-116.7,71.2-248.5,71.2-391.8V453.7l-7-1.6C1187.7,417.5,1030.7,400,873.9,400z"/>
	<path class="st1" d="M1054.2,876.6l76.5-24.6c7.7,54.5,12.5,100.8,19.8,153l64.8-21.4c-19.4-152-41.8-287.6-65.5-464.3   c-27.6,0-55.2,0-82.8,0c-13,128.1-27.8,239-41.2,372.9c0.1-0.6,0.1-1.3,0.1-1.7c0,0.3-0.1,0.9-0.1,1.7   c-5.9,55.2-11.8,104.6-17.8,160.6l28.6-10.2C1042.7,980.2,1048.4,938,1054.2,876.6z M1088.5,554c14.1,108,25.1,172.4,38.8,274.1   l-70,22.5C1068,737.5,1077.8,662.6,1088.5,554z"/>
	<path class="st1" d="M752.7,580.8v506.4c-0.6,65.7,23.3,147.4,110.2,150c29-0.1,51.4-10.1,68.3-25.4l45.4,16.6V829.5v-1.3H852.3   v1.5c0,7.2,0,13.9,0,21h54.6c0.3,81.6,0.4,164.1,0.7,245.7c0.3,83.1-3.6,123.2-44.8,123.7c-41.2-0.8-41.8-40.8-41.4-123.8   c0.6-160.3-0.6-320.7,0-481.1v-80.2c0-14.4,7.2-27.2,18.1-34.9c3.3-2.4,7-4.2,11-5.6c4.3-1.4,8.9-2.3,13.6-2.3   c23.6,0,42.8,19.1,42.8,42.8v109.5c22.8,0.7,46.9,0.1,69.6,0c-0.2-22.2-0.4-44.3-0.6-66.5c-0.6-58.8-28.3-101.9-113-102.1   C782.2,476,753.3,522,752.7,580.8z"/>
	<path class="st1" d="M723,687.1c0.2-20.5-0.2-38.5,0-59c0.7-63.6-16.1-107.4-100.8-108.8c-79.2-1.3-108,39.3-107.8,92.4   c0,103.3,0,163.2,0,266.5c-1.7,50.2,24.3,128.1,100.7,162.9c83.5,33.3,107.6-13.3,107.8-75.6c0.4-32.8-0.3-82.2,0.1-115l-68.1-22.5   c0,0,0.3,64.8,0,84c-1,82.8-1.8,129.1-39.6,114c-37.4-16.2-35.8-75.5-35.1-153.7l0.2-218.9v3.9l0.2-85.9   c0-20.5,16.6-37.2,37.2-37.2c20.5,0,37.2,16.7,37.2,37.2l0,66.8c0,1.1,0,2.1,0,3.1v24.9c0,1.2,0,2.4,0,3.5c0,5.6,0.1,10.7,0,17.2   C677.3,687.4,700.3,687.7,723,687.1z M654.9,655.3c0,1.9,0,4,0,6.3C654.9,659.4,654.9,657.3,654.9,655.3z"/>
</g>
</svg>